<svg width="56" height="56" viewBox="0 0 56 56" fill="none" xmlns="http://www.w3.org/2000/svg">
<path d="M17.957 39.4844H38.0312C40.5625 39.4844 41.875 38.1836 41.875 35.6875V21.4141C41.875 18.918 40.5625 17.6172 38.0312 17.6172H17.957C15.4258 17.6172 14.1133 18.9062 14.1133 21.4141V35.6875C14.1133 38.1836 15.4258 39.4844 17.957 39.4844ZM18.0977 37.1875C17.0078 37.1875 16.4102 36.625 16.4102 35.4883V21.6133C16.4102 20.4766 17.0078 19.9023 18.0977 19.9023H37.8906C38.9688 19.9023 39.5781 20.4766 39.5781 21.6133V35.4883C39.5781 36.625 38.9688 37.1875 37.8906 37.1875H18.0977ZM20.4883 23.875H30.0508C30.4727 23.875 30.7891 23.5469 30.7891 23.125C30.7891 22.7148 30.4727 22.3984 30.0508 22.3984H20.4883C20.043 22.3984 19.7266 22.7148 19.7266 23.125C19.7266 23.5469 20.043 23.875 20.4883 23.875ZM19.4453 31.293H36.5547C37.5508 31.293 38.1367 30.6836 38.1367 29.6875V27.3906C38.1367 26.3945 37.5508 25.7852 36.5547 25.7852H19.4453C18.4492 25.7852 17.8633 26.3945 17.8633 27.3906V29.6875C17.8633 30.6836 18.4492 31.293 19.4453 31.293ZM20.4883 29.2891C20.0547 29.2891 19.7383 28.9609 19.7383 28.5391C19.7383 28.1289 20.0547 27.8125 20.4883 27.8125H26.0898C26.5234 27.8125 26.8398 28.1289 26.8398 28.5391C26.8398 28.9609 26.5234 29.2891 26.0898 29.2891H20.4883ZM20.4883 34.6914H30.0508C30.4727 34.6914 30.7891 34.375 30.7891 33.9648C30.7891 33.543 30.4727 33.2148 30.0508 33.2148H20.4883C20.043 33.2148 19.7266 33.543 19.7266 33.9648C19.7266 34.375 20.043 34.6914 20.4883 34.6914Z" fill="black"/>
<rect x="0.5" y="0.5" width="55" height="55" rx="27.5" stroke="#EBEBEB"/>
</svg>
